<?xml version="1.0" encoding="utf-8"?>
<!-- Generator: Adobe Illustrator 23.0.3, SVG Export Plug-In . SVG Version: 6.00 Build 0)  -->
<svg version="1.1" id="Layer_1" xmlns="http://www.w3.org/2000/svg" xmlns:xlink="http://www.w3.org/1999/xlink" x="0px" y="0px"
	 viewBox="0 0 24 24" style="enable-background:new 0 0 24 24;" xml:space="preserve">
<style type="text/css">
	.st0{fill-rule:evenodd;clip-rule:evenodd;fill:#FFFFFF;fill-opacity:0.65;}
	.st1{fill:#FFFFFF;fill-opacity:0.65;}
</style>
<path class="st0" d="M2.9,1.7C3.9,1.2,5.2,1,6.5,1c1.3,0,2.6,0.2,3.6,0.7c0.5,0.2,0.9,0.5,1.3,0.9C11.7,2.9,12,3.4,12,4v6
	c0,0.6-0.3,1.1-0.6,1.5c-0.3,0.4-0.8,0.6-1.3,0.9c-1,0.4-2.2,0.7-3.6,0.7c-1.3,0-2.6-0.2-3.6-0.7c-0.5-0.2-0.9-0.5-1.3-0.9
	C1.3,11.1,1,10.6,1,10V4c0-0.6,0.3-1.1,0.6-1.5C2,2.2,2.4,1.9,2.9,1.7z M3,4C3,4,3,4,3,4c0.2-0.2,0.4-0.4,0.7-0.5
	C4.4,3.2,5.4,3,6.5,3c1.1,0,2.1,0.2,2.8,0.5c0.3,0.1,0.5,0.3,0.6,0.4C10,4,10,4,10,4c0,0,0,0-0.1,0.1C9.8,4.2,9.6,4.4,9.3,4.5
	C8.6,4.8,7.6,5,6.5,5C5.4,5,4.4,4.8,3.7,4.5C3.4,4.4,3.2,4.2,3,4C3,4,3,4,3,4z M6.5,7C7.8,7,9,6.8,10,6.4V7c0,0,0,0-0.1,0.1
	C9.8,7.2,9.6,7.4,9.3,7.5C8.6,7.8,7.6,8,6.5,8C5.4,8,4.4,7.8,3.7,7.5C3.4,7.4,3.2,7.2,3.1,7.1C3,7,3,7,3,7V6.4C4,6.8,5.2,7,6.5,7z
	 M3,9.4V10c0,0,0,0,0.1,0.1c0.1,0.1,0.3,0.3,0.6,0.4C4.4,10.8,5.4,11,6.5,11c1.1,0,2.1-0.2,2.8-0.5c0.3-0.1,0.5-0.3,0.6-0.4
	C10,10,10,10,10,10V9.4C9,9.8,7.8,10,6.5,10C5.2,10,4,9.8,3,9.4z"/>
<path class="st1" d="M16,2c-0.6,0-1,0.4-1,1s0.4,1,1,1h3c0.6,0,1,0.4,1,1v3c0,0.6,0.4,1,1,1s1-0.4,1-1V5c0-1.7-1.3-3-3-3H16z"/>
<path class="st1" d="M3,15c0.6,0,1,0.4,1,1v3c0,0.6,0.4,1,1,1h3c0.6,0,1,0.4,1,1s-0.4,1-1,1H5c-1.7,0-3-1.3-3-3v-3
	C2,15.4,2.4,15,3,15z"/>
<path class="st0" d="M18.5,21v-1H22c0.6,0,1-0.4,1-1v-6c0-0.6-0.4-1-1-1h-9c-0.6,0-1,0.4-1,1v6c0,0.6,0.4,1,1,1h3.5v1h-2
	c-0.6,0-1,0.4-1,1s0.4,1,1,1h6c0.6,0,1-0.4,1-1s-0.4-1-1-1H18.5z M21,18v-4h-7v4H21z"/>
</svg>
