<?xml version="1.0" encoding="utf-8"?>
<!-- Generator: Adobe Illustrator 23.0.3, SVG Export Plug-In . SVG Version: 6.00 Build 0)  -->
<svg version="1.1" id="Layer_1" xmlns="http://www.w3.org/2000/svg" xmlns:xlink="http://www.w3.org/1999/xlink" x="0px" y="0px"
	 viewBox="0 0 24 24" style="enable-background:new 0 0 24 24;" xml:space="preserve">
<style type="text/css">
	.st0{fill-rule:evenodd;clip-rule:evenodd;fill:#FFFFFF;fill-opacity:0.65;}
	.st1{fill:#FFFFFF;fill-opacity:0.65;}
</style>
<path class="st0" d="M6.5,1C5.2,1,3.9,1.2,2.9,1.7C2.4,1.9,2,2.2,1.6,2.5C1.3,2.9,1,3.4,1,4v6c0,0.6,0.3,1.1,0.6,1.5
	c0.3,0.4,0.8,0.6,1.3,0.9c1,0.4,2.2,0.7,3.6,0.7c1.3,0,2.6-0.2,3.6-0.7c0.5-0.2,0.9-0.5,1.3-0.9c0.4-0.4,0.6-0.9,0.6-1.5V4
	c0-0.6-0.3-1.1-0.6-1.5c-0.3-0.4-0.8-0.6-1.3-0.9C9.1,1.2,7.8,1,6.5,1z M3.1,3.9C3,4,3,4,3.1,3.9C3,4,3,4,3.1,4.1
	c0.1,0.1,0.3,0.3,0.6,0.4C4.4,4.8,5.4,5,6.5,5c1.1,0,2.1-0.2,2.8-0.5c0.3-0.1,0.5-0.3,0.6-0.4C10,4,10,4,10,4c0,0,0,0-0.1-0.1
	C9.8,3.8,9.6,3.6,9.3,3.5C8.6,3.2,7.6,3,6.5,3C5.4,3,4.4,3.2,3.7,3.5C3.4,3.6,3.2,3.8,3.1,3.9z M10,6.4C9,6.8,7.8,7,6.5,7
	C5.2,7,4,6.8,3,6.4V7c0,0,0,0,0.1,0.1c0.1,0.1,0.3,0.3,0.6,0.4C4.4,7.8,5.4,8,6.5,8c1.1,0,2.1-0.2,2.8-0.5c0.3-0.1,0.5-0.3,0.6-0.4
	C10,7,10,7,10,7V6.4z M3,10V9.4C4,9.8,5.2,10,6.5,10C7.8,10,9,9.8,10,9.4V10c0,0,0,0-0.1,0.1c-0.1,0.1-0.3,0.3-0.6,0.4
	C8.6,10.8,7.6,11,6.5,11c-1.1,0-2.1-0.2-2.8-0.5c-0.3-0.1-0.5-0.3-0.6-0.4C3,10,3,10,3,10z"/>
<path class="st1" d="M16,2c-0.6,0-1,0.4-1,1s0.4,1,1,1h3c0.6,0,1,0.4,1,1v3c0,0.6,0.4,1,1,1s1-0.4,1-1V5c0-1.7-1.3-3-3-3H16z"/>
<path class="st0" d="M14.5,14v1H13c-0.6,0-1,0.4-1,1v6c0,0.6,0.4,1,1,1h9c0.6,0,1-0.4,1-1v-6c0-0.6-0.4-1-1-1h-1.5v-1
	c0-1.7-1.3-3-3-3S14.5,12.3,14.5,14z M17.5,13c-0.6,0-1,0.4-1,1v1h2v-1C18.5,13.4,18.1,13,17.5,13z M14,17h7v4h-7V17z"/>
<path class="st1" d="M3,15c0.6,0,1,0.4,1,1v3c0,0.6,0.4,1,1,1h3c0.6,0,1,0.4,1,1s-0.4,1-1,1H5c-1.7,0-3-1.3-3-3v-3
	C2,15.4,2.4,15,3,15z"/>
</svg>
