<svg id="Layer_1" data-name="Layer 1" xmlns="http://www.w3.org/2000/svg" viewBox="0 0 1130.39 252.04"><defs><style>.cls-1{fill:#b52722;}.cls-2{fill:#fff;}.cls-3{fill:#212121;}</style></defs><title>logo1</title><path class="cls-1" d="M154.9,25.38l-87.21,42A20,20,0,0,0,56.87,80.94L35.33,175.31a20,20,0,0,0,3.86,16.92l60.35,75.68a20,20,0,0,0,15.64,7.53H212a20,20,0,0,0,15.63-7.53L288,192.23a20,20,0,0,0,3.86-16.92L270.29,80.94a20,20,0,0,0-10.83-13.57l-87.2-42A20,20,0,0,0,154.9,25.38Z" transform="translate(-34.83 -23.4)"/><path class="cls-2" d="M164,245a91.35,91.35,0,0,1,0-182.7v49.78a41.57,41.57,0,1,0,41.57,41.57h49.78A91.45,91.45,0,0,1,164,245Z" transform="translate(-34.83 -23.4)"/><path class="cls-2" d="M128.93,88.71h81.6a10,10,0,0,1,10,10v31.82a0,0,0,0,1,0,0h-81.6a10,10,0,0,1-10-10V88.71A0,0,0,0,1,128.93,88.71Z"/><rect class="cls-2" x="64.2" y="140.48" width="66.21" height="26.84" rx="5" transform="translate(159.78 284.42) rotate(180)"/><rect class="cls-2" x="160.53" y="120.82" width="52.77" height="24.39" rx="5" transform="translate(19.06 296.53) rotate(-90)"/><rect class="cls-2" x="130.91" y="205.2" width="66.21" height="26.84" rx="5" transform="translate(347.8 31.22) rotate(90)"/><path class="cls-3" d="M446.29,204.81q-3.74,1.41-6.39,2.32t-5.11,1.66c-1.63.5-4,1.13-7.1,1.91A149.93,149.93,0,0,1,412,213.48a136.49,136.49,0,0,1-16.56,1A81.09,81.09,0,0,1,363,208a53.11,53.11,0,0,1-23.78-19.84q-8.92-13.44-8.92-33a69.47,69.47,0,0,1,4.6-24.78A43.35,43.35,0,0,1,349,110.92a65.16,65.16,0,0,1,15.82-9.25,67.92,67.92,0,0,1,15.64-4.28,120.86,120.86,0,0,1,16.85-1.08q15.19,0,25.07,2.29t21.67,6v27.22a95.41,95.41,0,0,0-16.52-7.63q-8.71-3.08-21.75-3.08-15,0-24,5.69t-12.54,13.57a37.34,37.34,0,0,0-3.52,15.28,32.62,32.62,0,0,0,4.06,16.06A29.84,29.84,0,0,0,382,183.51q8.22,4.45,19.84,4.45A62.31,62.31,0,0,0,416,186.21V172.68H400.38V149.52h45.91Z" transform="translate(-34.83 -23.4)"/><path class="cls-3" d="M585,212.94H547.72l-9-20.42q-5-11.21-9-16.39T522,169.49A27.52,27.52,0,0,0,512.2,168h-3.91v44.91H473.6v-115h59q14.26,0,23.4,5.81t13.16,14.11a36.28,36.28,0,0,1,4,15.77q0,8.73-3.37,14.74a27.05,27.05,0,0,1-7.09,8.76,71.08,71.08,0,0,1-8.39,5.23,33,33,0,0,1,9.18,7.67q3.6,4.46,9.83,18Zm-47.14-78.69q0-8-5.23-11.12t-17-3.16h-7.31V147.7h7.48q12.69,0,17.39-2.78T537.85,134.25Z" transform="translate(-34.83 -23.4)"/><path class="cls-3" d="M727.1,212.94H691.58l-9.38-23.32h-50l-9.54,23.32H587.15L638,97.89h38.34Zm-52.87-43.33-16.85-42-17,42Z" transform="translate(-34.83 -23.4)"/><path class="cls-3" d="M842.73,97.89,790.85,214.43H767.94L717.06,97.89h36.11l26.31,66.41,27.06-66.41Z" transform="translate(-34.83 -23.4)"/><path class="cls-3" d="M893.37,212.94h-34.7v-115h34.7Z" transform="translate(-34.83 -23.4)"/><path class="cls-3" d="M1032.74,125.87H990.57v87.07H956V125.87H913.79v-28h119Z" transform="translate(-34.83 -23.4)"/><path class="cls-3" d="M1165.22,97.89l-45.07,62.34v52.71h-34.7V160.89l-45.91-63h36l26.4,36.19,26.48-36.19Z" transform="translate(-34.83 -23.4)"/></svg>