<svg id="Layer_1" data-name="Layer 1" xmlns="http://www.w3.org/2000/svg" viewBox="0 0 257.5 252.04"><defs><style>.cls-1{fill:#b52722;}.cls-2{fill:#fff;}</style></defs><title>logo2</title><path class="cls-1" d="M140.9,25.38l-87.21,42A20,20,0,0,0,42.87,80.94L21.33,175.31a20,20,0,0,0,3.86,16.92l60.35,75.68a20,20,0,0,0,15.64,7.53H198a20,20,0,0,0,15.63-7.53L274,192.23a20,20,0,0,0,3.86-16.92L256.29,80.94a20,20,0,0,0-10.83-13.57l-87.2-42A20,20,0,0,0,140.9,25.38Z" transform="translate(-20.83 -23.4)"/><path class="cls-2" d="M150,245a91.35,91.35,0,0,1,0-182.7v49.78a41.57,41.57,0,1,0,41.57,41.57h49.78A91.45,91.45,0,0,1,150,245Z" transform="translate(-20.83 -23.4)"/><path class="cls-2" d="M128.93,88.71h81.6a10,10,0,0,1,10,10v31.82a0,0,0,0,1,0,0h-81.6a10,10,0,0,1-10-10V88.71A0,0,0,0,1,128.93,88.71Z"/><rect class="cls-2" x="50.2" y="140.48" width="66.21" height="26.84" rx="5" transform="translate(145.78 284.42) rotate(180)"/><rect class="cls-2" x="146.53" y="120.82" width="52.77" height="24.39" rx="5" transform="translate(19.06 282.53) rotate(-90)"/><rect class="cls-2" x="116.91" y="205.2" width="66.21" height="26.84" rx="5" transform="translate(347.8 45.22) rotate(90)"/></svg>